<?xml version="1.0" encoding="UTF-8"?>
<svg version="1.1" viewBox="0 0 2000 2000" width="1280" height="1280" xmlns="http://www.w3.org/2000/svg">
<path transform="translate(995,916)" d="m0 0h17l16 3 16 8 8 6 7 10 5 12 2 4 7-12 7-8 13-10 16-8 15-4 8-1h23l17 3 16 7 12 8 10 9 9 13 5 12 3 13v18l-3 14-6 13-8 11-8 8-14 9-11 5-16 4-10 1h-17l-19-3-13-5-13-7-12-11-9-12-3-6v39l-1 1h-47l-1-1-1-85-4-10-9-8-8-2-11 1-8 4-7 7-4 8-1 8v77l-2 1h-46l-1-1v-110l-8 16-17 33-10 19-18 35-10 19-14 27-18 33h-55l2-6 12-23 10-19 18-35 4-7v-6l-12-21-10-18-14-25-13-23-16-28h57l12 23 24 44 3 3 7-16 15-32 9-20 2-2h88l1 5-1 9 15-11 13-6zm141 41-10 4-10 9-4 8-2 9 1 12 4 9 7 8 8 5 8 2h10l10-3 8-5 7-10 3-12-1-13-5-10-5-6-8-5-8-2z" fill="#010101"/>
<path transform="translate(613,825)" d="m0 0h47l1 1v29l-1 79 6-4 11-8 12-5 5-1h16l15 3 12 5 9 6 7 7 6 10 3 9 1 23v80l-1 1h-47l-1-4v-53l-1-30-5-10-7-6-8-3h-7l-10 3-10 9-4 8-1 38v47l-1 1h-47l-1-1v-107l-2 1-4 10-4 1-9-4-4-1h-18l-10 5-6 8-3 8-1 17v62l-1 1h-47l-1-1v-139h48l1 4v14l5-5 11-9 11-6 9-2h14l11 3v-93z" fill="#010101"/>
<path transform="translate(1326,916)" d="m0 0h22l18 3 18 6v4l-14 29-6-2-16-5-14-1-9 3-1 7 5 5 13 5 16 6 14 8 6 5 6 9 3 9v20l-4 12-7 9-9 7-12 5-14 3-11 1h-16l-17-3-16-6-10-6-3-3 1-5 15-25 1-3 6 2 10 6 8 4 8 2h11l6-3 1-2v-8l-3-3-27-12-12-7-10-10-4-7-2-8v-13l4-13 7-9 7-6 13-6 11-3z" fill="#010101"/>
<path transform="translate(1241,831)" d="m0 0h13l8 4 7 8 2 5v10l-8 37-8 33-1 2h-17l-2-3-8-46-3-21v-13l5-8 7-6z" fill="#010101"/>
<path transform="translate(1465 1e3)" d="m0 0 12 2 8 4 7 7 5 10 1 3v11l-4 10-6 8-10 6-10 2-10-1-8-3-8-7-6-12v-16l4-10 9-9 10-4z" fill="#010101"/>
<path transform="translate(1060,1092)" d="m0 0h4l1 2 1 11 4-2h9l6 4 3 7-1 10-6 7-3 1h-9l-4-1-4 1-1-1-1-13zm10 16-5 5v8l3 5 2 1h7l5-5v-9l-4-5z" fill="#101010"/>
<path transform="translate(913,1103)" d="m0 0 4 1 4 9 4 6h2l2-10 4-1 3 5 1 8 3-3 7-14 4-1-1 7-8 21h-5l-3-8-2-2-4-1v9l-2 2-5-1-4-10-4-12z" fill="#101010"/>
<path transform="translate(1e3 1102)" d="m0 0 9 2 5 6 1 8-1 1-19 1 1 4 2 2h10l4-2h3l-2 4-6 4h-10l-6-4-3-5v-11l7-8zm-1 5-5 5 1 4 12-1 2-1-2-5-3-2z" fill="#141414"/>
<path transform="translate(999,1115)" d="m0 0h7l1 4h-9z" fill="#010101"/>
</svg>
